<?xml version="1.0" standalone="no"?>
<!DOCTYPE svg PUBLIC "-//W3C//DTD SVG 20010904//EN"
 "http://www.w3.org/TR/2001/REC-SVG-20010904/DTD/svg10.dtd">
<svg version="1.0" xmlns="http://www.w3.org/2000/svg"
 width="300.000000pt" height="300.000000pt" viewBox="0 0 300.000000 300.000000"
 preserveAspectRatio="xMidYMid meet">
<metadata>
Created by potrace 1.11, written by Peter Selinger 2001-2013
</metadata>
<g transform="translate(0.000000,300.000000) scale(0.100000,-0.100000)"
fill="#000000" stroke="none">
<path d="M0 1500 l0 -1500 1500 0 1500 0 0 1500 0 1500 -1500 0 -1500 0 0
-1500z m830 680 c0 -5 7 -10 15 -10 8 0 15 -8 15 -19 0 -15 -10 -20 -48 -25
-26 -3 -58 -13 -71 -22 -43 -30 -28 -84 153 -544 93 -234 175 -441 183 -460
l15 -35 104 280 c188 503 212 583 198 675 -8 50 -57 110 -92 110 -39 0 -82 22
-82 41 0 18 10 19 215 19 182 0 215 -2 215 -15 0 -9 6 -12 15 -9 10 4 15 0 15
-13 0 -12 -18 -32 -49 -53 -36 -25 -58 -51 -87 -104 -21 -39 -142 -352 -269
-696 l-231 -625 -87 0 c-48 0 -91 5 -96 10 -5 6 -135 320 -290 699 -157 386
-290 700 -303 714 -13 13 -38 31 -55 38 -22 9 -33 21 -33 34 0 20 7 20 325 20
210 0 325 -4 325 -10z m1167 -352 c-13 -29 -133 -306 -267 -615 l-245 -563
-82 0 c-46 0 -83 2 -83 5 0 3 45 110 100 237 56 128 174 403 263 610 l162 378
87 0 88 0 -23 -52z m364 -372 c200 -69 382 -131 404 -139 l40 -14 8 -128 c5
-70 5 -131 0 -135 -4 -4 -186 -84 -404 -177 l-396 -170 -7 60 c-3 33 -6 74 -6
91 l0 31 326 141 c179 77 326 145 327 150 1 5 -147 60 -328 123 -182 63 -333
119 -337 125 -11 16 -10 166 1 166 5 0 172 -56 372 -124z"/>
</g>
</svg>
